<?xml version="1.0" encoding="UTF-8"?>
<svg id="Layer_1" xmlns="http://www.w3.org/2000/svg" version="1.1" viewBox="0 0 400 400">
  <!-- Generator: Adobe Illustrator 29.0.0, SVG Export Plug-In . SVG Version: 2.1.0 Build 186)  -->
  <defs>
    <style>
      .st0 {
        fill: #bf2e00;
      }

      .st1 {
        fill: #ff5700;
      }

      .st2 {
        fill: #2e8c00;
      }

      .st3 {
        fill: #40ba00;
      }
    </style>
  </defs>
  <g>
    <path class="st3" d="M177.9,18c8.8,19.2,12.2,40,10.2,60.1h11c3.5-20.1,1.6-40.9-5.8-60.1h-15.4ZM161.6,18c8.2,19.2,10.9,40,8.3,60.1h9.5c2.6-20.1-.3-40.9-8.5-60.1h-9.3ZM231.5,18h-9c7,19.2,8.5,40,4.7,60.1,3,0,6.1,0,9.2,0,3.8-20.1,2.2-40.9-4.8-60.1ZM200.2,18c7.9,19.2,10.4,40,7.4,60.1h11.1c4.4-20.1,3.4-40.9-3-60.1h-15.4Z"/>
    <path class="st2" d="M170.9,18c8.3,19.2,11.1,40,8.5,60.1h8.6c2-20.1-1.4-40.9-10.2-60.1h-6.9ZM193.3,18c7.4,19.2,9.3,40,5.8,60.1h8.5c2.9-20.1.5-40.9-7.4-60.1h-6.9ZM222.5,18h-6.9c6.4,19.2,7.4,40,3,60.1h5.7c1,0,1.9,0,2.9,0,3.8-20.1,2.3-40.9-4.7-60.1Z"/>
  </g>
  <path class="st1" d="M351.9,117.8c-27.5-26.3-71.5-38.7-112.1-39.7-3.1,0-6.1,0-9.2,0-1,0-1.9,0-2.9,0h-55.5c-43.7-1.3-93.9,10.8-124.2,39.7C16.4,145.7,4.8,190.3,5.8,230c-1,39.7,10.6,84.4,42.2,112.2,30.2,28.9,80.5,41,124.2,39.7h55.5c43.7,1.3,93.9-10.8,124.2-39.7,31.6-27.8,43.3-72.5,42.2-112.2,1-39.7-10.6-84.3-42.2-112.2ZM262.6,139.8c-6.4-17.8-11.7-28.8-26.1-45.5,23.8,12.6,26.7,36.9,26.1,45.5ZM328.9,205.4h-74.1,0c0,0-5.9,0-5.9,0l42-79.9,44.4,79.9h-6.6,0ZM199,89.1c.2,0,.4.6.6,1.6.4,2.1.7,6.1.9,11.5.3,7.4.5,17.5.5,28.5,0,22.9-1.1,41.5-2.2,41.5s-2-18.6-1.9-41.5c0-11,.3-21.1.7-28.5.1-2.2.2-4.2.4-5.9.4-4.5.8-7.1,1.2-7.1ZM200,186.3l34.2,60.7h-68.4l34.2-60.7ZM163.5,94.3c-14.4,16.7-19.7,27.7-26.1,45.5-.7-8.6,2.3-32.9,26.1-45.5ZM145.1,205.4h-74,0c0,0-6.6,0-6.6,0l44.4-79.9,42,79.9h-5.9,0ZM110.1,101.5c-52.2,41.2-74.5,87-74.5,87,0,0,6.6-51,74.5-87ZM35.6,274.8s22.3,45.8,74.5,87c-67.9-36-74.5-87-74.5-87ZM139.5,339.6c1.6.4,3.2.8,4.9,1.2,4.4,9.3,9.9,17.6,19.1,28.3-14.3-7.6-21-19.4-24-29.4ZM236.5,369.1c9.2-10.6,14.7-19,19.1-28.3,1.7-.4,3.3-.8,4.9-1.2-3,10.1-9.7,21.9-24,29.4ZM221.5,334.8v-22.9c-14.3,1-28.7,1-43,0v22.9c-75.6-8.2-98.4-84.3-99.9-87.1h0c-1.8-3-3.1-5.7-3.6-7.9,13.1.4,26.6-.2,40.2-1.8-6,4-11.9,7.8-17.7,11.4,9.4,3.5,18.9,6.6,28.4,9.1v24c8.8,2.3,17.8,4.2,26.7,5.7v-24c31.3,5.2,63.3,5.2,94.6,0v24c9-1.5,17.9-3.4,26.7-5.7v-24c9.6-2.5,19.1-5.6,28.4-9.1-5.9-3.6-11.8-7.4-17.7-11.4,13.7,1.6,27.1,2.2,40.2,1.8-.5,2.2-1.8,4.9-3.6,7.9,0,0,0,0,0,0-1.6,2.8-24.4,78.9-99.9,87.1ZM289.9,361.8c52.2-41.2,74.5-87,74.5-87,0,0-6.6,51-74.5,87ZM289.9,101.5c67.9,36,74.5,87,74.5,87,0,0-22.3-45.8-74.5-87Z"/>
  <path class="st0" d="M236.5,94.3c14.4,16.7,19.7,27.7,26.1,45.5.7-8.6-2.3-32.9-26.1-45.5ZM163.5,94.3c-23.8,12.6-26.7,36.9-26.1,45.5,6.4-17.8,11.7-28.8,26.1-45.5ZM236.5,369.1c14.3-7.6,21-19.4,24-29.4-1.6.4-3.2.8-4.9,1.2-4.4,9.3-9.9,17.6-19.1,28.3ZM139.5,339.6c3,10.1,9.7,21.9,24,29.4-9.2-10.6-14.7-19-19.1-28.3-1.7-.4-3.3-.8-4.9-1.2ZM198.7,172.2c1.2,0,2.2-18.6,2.2-41.5,0-11-.1-21.1-.5-28.5-.2-5.4-.6-9.4-.9-11.5-.2-1-.4-1.6-.6-1.6-.4,0-.8,2.6-1.2,7.1-.1,1.7-.3,3.7-.4,5.9-.4,7.4-.6,17.5-.7,28.5,0,22.9.8,41.5,1.9,41.5ZM364.4,188.5s-6.6-51-74.5-87c52.2,41.2,74.5,87,74.5,87ZM289.9,361.8c67.9-36,74.5-87,74.5-87,0,0-22.3,45.8-74.5,87ZM325,239.8c-13.1.4-26.6-.2-40.2-1.8,6,4,11.9,7.8,17.7,11.4-9.4,3.5-18.9,6.6-28.4,9.1v24c-8.8,2.3-17.8,4.3-26.7,5.7v-24c-31.3,5.2-63.3,5.2-94.6,0v24c-9-1.5-17.9-3.4-26.7-5.7v-24c-9.6-2.5-19.1-5.6-28.4-9.1,5.9-3.6,11.8-7.4,17.7-11.4-13.7,1.6-27.1,2.2-40.2,1.8.5,2.2,1.8,4.9,3.6,7.9,13.4,6,27.1,10.9,41.1,14.8v24.6c12.6,3.5,25.3,6.2,38.1,8v-24.6c28,4,56.4,4,84.3,0v24.6c12.8-1.8,25.6-4.5,38.1-8v-24.6c13.9-3.9,27.7-8.8,41.1-14.8,1.8-3,3.1-5.7,3.6-7.9ZM35.6,274.8s6.6,51,74.5,87c-52.2-41.2-74.5-87-74.5-87ZM200,197.9l28.3,49.1h5.9l-34.2-60.7-34.2,60.7h5.9l28.3-49.1ZM249.1,205.3h5.9l37-64,37,64h6.6l-44.4-79.9-42,79.9ZM64.6,205.3h6.6l37-64,37,64h5.9l-42-79.9-44.4,79.9ZM110.1,101.5c-67.9,36-74.5,87-74.5,87,0,0,22.3-45.8,74.5-87Z"/>
  <path d="M328.9,205.3l-37-64-37,64h0c0,0,74.1,0,74.1,0h0ZM145.1,205.3l-37-64-37,64h0c0,0,74,0,74,0h0ZM280.3,262.5v24.6c-12.6,3.5-25.3,6.2-38.1,8v-24.6c-28,4-56.4,4-84.3,0v24.6c-12.8-1.8-25.6-4.5-38.1-8v-24.6c-13.9-3.9-27.7-8.8-41.1-14.8h0c1.6,2.8,24.4,78.9,99.9,87.1v-22.9c14.3,1,28.7,1,43,0v22.9c75.6-8.2,98.4-84.3,99.9-87.1,0,0,0,0,0,0-13.4,6-27.1,10.9-41.1,14.8ZM200,197.9l-28.3,49.1h56.7l-28.3-49.1Z"/>
</svg>